<?xml version="1.0" encoding="utf-8"?><!-- Uploaded to: SVG Repo, www.svgrepo.com, Generator: SVG Repo Mixer Tools -->
<svg fill="#000000" width="800px" height="800px" viewBox="0 0 24 24" id="mcdonalds-square" data-name="Flat Color" xmlns="http://www.w3.org/2000/svg" class="icon flat-color"><rect id="primary" x="2" y="2" width="20" height="20" rx="2" style="fill: rgb(0, 0, 0);"></rect><path id="secondary" d="M17,18a1,1,0,0,1-1-1c0-6.75-.94-8.8-1.31-9-.34.14-1.39,2.17-1.69,7.41a1,1,0,0,1-1,.94h0a1,1,0,0,1-1-.94C10.67,9.63,9.49,8.08,9.21,8,8.94,8.2,8,10.25,8,17a1,1,0,0,1-2,0C6,7.14,7.84,6,9.22,6S11.42,7.23,12,9c.58-1.75,1.46-3,2.78-3S18,7.14,18,17A1,1,0,0,1,17,18Z" style="fill: rgb(44, 169, 188);"></path></svg>