<?xml version="1.0" encoding="iso-8859-1"?>
<!-- Uploaded to: SVG Repo, www.svgrepo.com, Generator: SVG Repo Mixer Tools -->
<svg fill="#dfdfdf" height="800px" width="800px" version="1.1" id="Layer_1" xmlns="http://www.w3.org/2000/svg" xmlns:xlink="http://www.w3.org/1999/xlink" 
	 viewBox="0 0 512 512" xml:space="preserve">
<g>
	<g>
		<g>
			<path d="M17.012,256c0-131.779,107.21-238.989,238.989-238.989c41.678,0,82.705,10.888,118.645,31.486
				c34.872,19.986,64.397,48.684,85.38,82.992c2.451,4.008,7.687,5.27,11.693,2.818c4.008-2.451,5.27-7.687,2.818-11.693
				c-22.471-36.74-54.088-67.472-91.433-88.875C344.594,11.666,300.642,0,256.001,0C187.621,0,123.334,26.629,74.982,74.981
				C26.63,123.333,0.001,187.621,0.001,256c0,41.016,9.41,80.202,27.972,116.469c1.505,2.941,4.486,4.632,7.578,4.632
				c1.304,0,2.628-0.301,3.867-0.935c4.182-2.14,5.837-7.265,3.697-11.447C25.794,330.874,17.012,294.295,17.012,256z"/>
			<path d="M492.474,157.81c-1.803-4.338-6.782-6.392-11.118-4.588c-4.337,1.803-6.392,6.781-4.588,11.118
				c12.091,29.088,18.222,59.927,18.222,91.662c0,131.779-107.21,238.989-238.989,238.989c-38.632,0-75.497-8.932-109.571-26.547
				c-32.515-16.81-61.207-41.315-82.974-70.869c-2.785-3.783-8.11-4.59-11.892-1.804c-3.782,2.785-4.591,8.11-1.804,11.892
				c23.308,31.645,54.035,57.888,88.858,75.892C174.616,502.163,215.207,512,256.001,512c68.379,0,132.667-26.629,181.017-74.98
				c48.352-48.352,74.981-112.64,74.981-181.019C511.999,222.013,505.43,188.977,492.474,157.81z"/>
			<path d="M122.289,206.63c-12.776,0-23.17,10.394-23.17,23.17v52.399c0,12.776,10.394,23.17,23.17,23.17h267.423
				c12.775,0,23.169-10.394,23.17-23.17V229.8c0-12.775-10.394-23.17-23.17-23.17H122.289z M395.872,229.801V282.2
				c0,3.397-2.763,6.159-6.159,6.159H122.289c-3.396,0-6.159-2.763-6.159-6.159v-52.399c0-3.395,2.763-6.159,6.159-6.159h267.423
				C393.109,223.642,395.872,226.404,395.872,229.801z"/>
		</g>
	</g>
</g>
</svg>
