<svg width="45" height="40" viewBox="0 0 45 40" fill="none" xmlns="http://www.w3.org/2000/svg">
<g id="Add">
<rect id="Base" x="0.404297" y="0.28418" width="43.8299" height="39.7208" rx="8.93034" fill="#323142"/>
<g id="+">
<mask id="path-2-inside-1_1_16676" fill="white">
<path d="M29.2818 21.3603H22.9422V27.7891H20.4123V21.3603H14.1025V19.0685H20.4123V12.6099H22.9422V19.0685H29.2818V21.3603Z"/>
</mask>
<path d="M29.2818 21.3603H22.9422V27.7891H20.4123V21.3603H14.1025V19.0685H20.4123V12.6099H22.9422V19.0685H29.2818V21.3603Z" fill="black"/>
<path d="M29.2818 21.3603V25.4693H33.3908V21.3603H29.2818ZM22.9422 21.3603V17.2512H18.8332V21.3603H22.9422ZM22.9422 27.7891V31.8982H27.0513V27.7891H22.9422ZM20.4123 27.7891H16.3033V31.8982H20.4123V27.7891ZM20.4123 21.3603H24.5214V17.2512H20.4123V21.3603ZM14.1025 21.3603H9.99349V25.4693H14.1025V21.3603ZM14.1025 19.0685V14.9594H9.99349V19.0685H14.1025ZM20.4123 19.0685V23.1775H24.5214V19.0685H20.4123ZM20.4123 12.6099V8.50081H16.3033V12.6099H20.4123ZM22.9422 12.6099H27.0513V8.50081H22.9422V12.6099ZM22.9422 19.0685H18.8332V23.1775H22.9422V19.0685ZM29.2818 19.0685H33.3908V14.9594H29.2818V19.0685ZM29.2818 17.2512H22.9422V25.4693H29.2818V17.2512ZM18.8332 21.3603V27.7891H27.0513V21.3603H18.8332ZM22.9422 23.6801H20.4123V31.8982H22.9422V23.6801ZM24.5214 27.7891V21.3603H16.3033V27.7891H24.5214ZM20.4123 17.2512H14.1025V25.4693H20.4123V17.2512ZM18.2116 21.3603V19.0685H9.99349V21.3603H18.2116ZM14.1025 23.1775H20.4123V14.9594H14.1025V23.1775ZM24.5214 19.0685V12.6099H16.3033V19.0685H24.5214ZM20.4123 16.7189H22.9422V8.50081H20.4123V16.7189ZM18.8332 12.6099V19.0685H27.0513V12.6099H18.8332ZM22.9422 23.1775H29.2818V14.9594H22.9422V23.1775ZM25.1727 19.0685V21.3603H33.3908V19.0685H25.1727Z" fill="white" mask="url(#path-2-inside-1_1_16676)"/>
</g>
</g>
</svg>
