<svg width="26" height="27" viewBox="0 0 26 27" fill="none" xmlns="http://www.w3.org/2000/svg">
<g id="Star">
<path id="Edit Color" d="M15.9993 21.687C17.7033 22.6197 19.2019 21.4893 18.876 19.511L18.2909 15.9589L20.7696 13.4433C22.1482 12.0443 21.5786 10.2111 19.6708 9.92245L16.2453 9.40421L14.7209 6.18842C13.867 4.38709 12.013 4.36771 11.1575 6.17244L9.62555 9.40421L6.19999 9.92245C4.29484 10.2107 3.72066 12.0423 5.10119 13.4433L7.57994 15.9589L6.99479 19.511C6.66935 21.4865 8.16507 22.621 9.87149 21.687L12.9354 20.01L15.9993 21.687Z" fill="#6C5FBC"/>
<mask id="mask0_1_16751" style="mask-type:luminance" maskUnits="userSpaceOnUse" x="4" y="4" width="18" height="19">
<path id="Edit Color_2" d="M15.9993 21.687C17.7033 22.6197 19.2019 21.4893 18.876 19.511L18.2909 15.9589L20.7696 13.4433C22.1482 12.0443 21.5786 10.2111 19.6708 9.92245L16.2453 9.40421L14.7209 6.18842C13.867 4.38709 12.013 4.36771 11.1575 6.17244L9.62555 9.40421L6.19999 9.92245C4.29484 10.2107 3.72066 12.0423 5.10119 13.4433L7.57994 15.9589L6.99479 19.511C6.66935 21.4865 8.16507 22.621 9.87149 21.687L12.9354 20.01L15.9993 21.687Z" fill="white"/>
</mask>
<g mask="url(#mask0_1_16751)">
</g>
</g>
</svg>
