<svg width="209" height="100" viewBox="0 0 209 100" fill="none" xmlns="http://www.w3.org/2000/svg">
<path id="Vector 15" d="M1.07422 83.6715C12.1442 83.6715 13.2155 98.0846 24.9997 98.0846C36.7839 98.0846 33.9271 57.1211 44.9972 57.1211C56.0672 57.1211 49.9965 22.6056 65.3517 22.6056C80.7069 22.6056 73.5649 57.1211 87.4917 57.1211C101.418 57.1211 99.2759 16.8297 108.203 16.8297C117.131 16.8297 114.631 40.8116 125.344 40.8116C136.057 40.8116 131.058 1.25586 142.485 1.25586C153.912 1.25586 152.84 18.5225 163.196 18.5225C173.552 18.5225 174.623 38.5359 188.907 38.5359C203.191 38.5359 194.264 60.8428 207.833 60.8428" stroke="#6C5FBC" stroke-width="1.98779" stroke-linecap="round" stroke-linejoin="round"/>
</svg>
